<svg xmlns="http://www.w3.org/2000/svg" xmlns:xlink="http://www.w3.org/1999/xlink" xmlns:lucid="lucid" width="1360" height="1044"><g transform="translate(8 8)" lucid:page-tab-id="0_0"><path d="M739 92c0 44.18-35.82 80-80 80s-80-35.82-80-80 35.82-80 80-80 80 35.82 80 80z" stroke="#000" stroke-width="2" fill="url(#a)"/><use xlink:href="#b" transform="matrix(1,0,0,1,584.0000000000001,17) translate(18.77777777777777 85.66666666666667)"/><path d="M740 404c0 44.18-35.82 80-80 80s-80-35.82-80-80 35.82-80 80-80 80 35.82 80 80z" stroke="#000" stroke-width="2" fill="url(#c)"/><use xlink:href="#d" transform="matrix(1,0,0,1,585,329) translate(57.22222222222222 85.66666666666667)"/><path d="M298.67 404c0 44.18-35.82 80-80 80-44.2 0-80-35.82-80-80s35.8-80 80-80c44.18 0 80 35.82 80 80z" stroke="#000" stroke-width="2" fill="url(#e)"/><use xlink:href="#f" transform="matrix(1,0,0,1,143.66666666666666,328.99999809265137) translate(57.22222222222222 85.66666666666667)"/><path d="M1198.67 404c0 44.18-35.82 80-80 80-44.2 0-80-35.82-80-80s35.8-80 80-80c44.18 0 80 35.82 80 80z" stroke="#000" stroke-width="2" fill="url(#g)"/><use xlink:href="#h" transform="matrix(1,0,0,1,1043.6666666666665,328.99999809265137) translate(55.81481481481481 85.66666666666667)"/><path d="M659 173l.88 131.76" stroke="#000" stroke-width="2" fill="none"/><path d="M659 172h.68l.3-.02.02 1-2 .03v-1.03zM659.98 319.76l-4.73-14.23 9.27-.06z"/><path d="M660 323l-6.13-18.46 12.02-.08zm-3.37-16.48l3.33 10 3.2-10.04z"/><path d="M622.78 164.43l-387.14 151.9" stroke="#000" stroke-width="2" fill="none"/><path d="M625.14 164.5l.1.04-2.1.82-.72-1.86.42-.16zM236.65 320.92l-14.97.9 11.6-9.53z"/><path d="M238.1 321.84L218.66 323l15.02-12.35zm-13.4-1.2l10.52-.63-2.38-6.06z"/><path d="M695.22 164.44L1101.6 316.6" stroke="#000" stroke-width="2" fill="none"/><path d="M695.57 163.5l-.7 1.87-2.18-.8.75-.35 1.7-.88zM1115.64 321.87l-15-.67 3.26-8.68z"/><path d="M1118.67 323l-19.44-.86 4.22-11.26zm-16.6-2.73l10.54.46-8.24-6.57z"/><path d="M632 676c0 44.18-35.82 80-80 80s-80-35.82-80-80 35.82-80 80-80 80 35.82 80 80z" stroke="#000" stroke-width="2" fill="url(#i)"/><use xlink:href="#j" transform="matrix(1,0,0,1,477,600.9999961853027) translate(39.44444444444444 85.66666666666667)"/><path d="M852 676c0 44.18-35.82 80-80 80s-80-35.82-80-80 35.82-80 80-80 80 35.82 80 80z" stroke="#000" stroke-width="2" fill="url(#k)"/><use xlink:href="#l" transform="matrix(1,0,0,1,697,600.9999961853027) translate(38.03703703703704 85.66666666666667)"/><path d="M412 676c0 44.18-35.82 80-80 80s-80-35.82-80-80 35.82-80 80-80 80 35.82 80 80z" stroke="#000" stroke-width="2" fill="url(#m)"/><use xlink:href="#n" transform="matrix(1,0,0,1,257,600.9999961853027) translate(38.03703703703704 85.66666666666667)"/><path d="M172 676c0 44.18-35.82 80-80 80s-80-35.82-80-80 35.82-80 80-80 80 35.82 80 80z" stroke="#000" stroke-width="2" fill="url(#o)"/><use xlink:href="#p" transform="matrix(1,0,0,1,17,600.9999961853027) translate(39.44444444444444 85.66666666666667)"/><path d="M1092 676c0 44.18-35.82 80-80 80s-80-35.82-80-80 35.82-80 80-80 80 35.82 80 80z" stroke="#000" stroke-width="2" fill="url(#q)"/><use xlink:href="#r" transform="matrix(1,0,0,1,937,600.9999961853027) translate(38.03703703703704 85.66666666666667)"/><path d="M1332 676c0 44.18-35.82 80-80 80s-80-35.82-80-80 35.82-80 80-80 80 35.82 80 80z" stroke="#000" stroke-width="2" fill="url(#s)"/><use xlink:href="#t" transform="matrix(1,0,0,1,1177,600.9999961853027) translate(38.03703703703704 85.66666666666667)"/><path d="M634.38 480.85l-71.7 99.36" stroke="#000" stroke-width="2" fill="none"/><path d="M635.38 480.14l.62.18-.8 1.1-1.63-1.16.44-.6zM566 583.52l-12.1 8.86 4.58-14.28z"/><path d="M567.7 583.52L552 595l5.95-18.52zm-11.9 6.23l8.5-6.22-5.3-3.82z"/><path d="M685.62 480.86l75.38 99.6" stroke="#000" stroke-width="2" fill="none"/><path d="M686.42 480.26l-1.6 1.2-.86-1.14 1.28-.38.73-.27zM770.05 592.42l-12.3-8.58 7.38-5.6z"/><path d="M772 595l-15.96-11.13 9.6-7.25zm-12.56-11.2l8.65 6.04-3.46-9.97z"/><path d="M244.3 480.86l76.6 99.68" stroke="#000" stroke-width="2" fill="none"/><path d="M245.08 480.25l-1.6 1.22-.87-1.15 1.3-.38.73-.27zM330.03 592.43l-12.37-8.48 7.35-5.65z"/><path d="M332 595l-16.04-11 9.53-7.33zm-12.64-11.1l8.7 5.97-3.53-9.94z"/><path d="M193.05 480.85l-88.96 100.5" stroke="#000" stroke-width="2" fill="none"/><path d="M194.05 480.14l.77.22-1.02 1.15-1.5-1.32.45-.5zM107.07 584.97l-12.93 7.6 6-13.75z"/><path d="M108.76 585.13L92 595l7.76-17.84zm-12.47 5.02l9.08-5.35-4.88-4.32z"/><path d="M1093.05 480.85l-70.5 99.28" stroke="#000" stroke-width="2" fill="none"/><path d="M1094.05 480.14l.6.18-.78 1.1-1.63-1.15.43-.62zM1025.9 583.4l-12.03 8.96 4.48-14.3z"/><path d="M1027.6 583.4L1012 595l5.8-18.57zm-11.85 6.32l8.46-6.3-5.3-3.76z"/><path d="M1144.3 480.86l95.18 100.88" stroke="#000" stroke-width="2" fill="none"/><path d="M1145 480.18l-1.44 1.37-1.1-1.18 1.45-.43.66-.24zM1249.78 592.65l-13.16-7.2 6.74-6.36z"/><path d="M1252 595l-17.07-9.33 8.74-8.25zm-13.7-9.76l9.26 5.05-4.52-9.54z"/><path d="M632 936c0 44.18-35.82 80-80 80s-80-35.82-80-80 35.82-80 80-80 80 35.82 80 80z" stroke="#000" stroke-width="2" fill="#03930e"/><use xlink:href="#u" transform="matrix(1,0,0,1,477,860.9999961853027) translate(20.259259259259252 85.66666666666667)"/><path d="M852 936c0 44.18-35.82 80-80 80s-80-35.82-80-80 35.82-80 80-80 80 35.82 80 80z" stroke="#000" stroke-width="2" fill="#19967d"/><use xlink:href="#v" transform="matrix(1,0,0,1,697,860.9999961853027) translate(20.25925925925926 85.66666666666667)"/><path d="M412 936c0 44.18-35.82 80-80 80s-80-35.82-80-80 35.82-80 80-80 80 35.82 80 80z" stroke="#000" stroke-width="2" fill="#fcc438"/><use xlink:href="#w" transform="matrix(1,0,0,1,257,860.9999961853027) translate(20.25925925925926 85.66666666666667)"/><path d="M172 936c0 44.18-35.82 80-80 80s-80-35.82-80-80 35.82-80 80-80 80 35.82 80 80z" stroke="#000" stroke-width="2" fill="#ef8d22"/><use xlink:href="#x" transform="matrix(1,0,0,1,17,860.9999961853027) translate(20.259259259259252 85.66666666666667)"/><path d="M1092 936c0 44.18-35.82 80-80 80s-80-35.82-80-80 35.82-80 80-80 80 35.82 80 80z" stroke="#000" stroke-width="2" fill="#834187"/><use xlink:href="#y" transform="matrix(1,0,0,1,937,860.9999961853027) translate(20.25925925925926 85.66666666666667)"/><path d="M1332 936c0 44.18-35.82 80-80 80s-80-35.82-80-80 35.82-80 80-80 80 35.82 80 80z" stroke="#000" stroke-width="2" fill="#de5f85"/><use xlink:href="#z" transform="matrix(1,0,0,1,1177,860.9999961853027) translate(20.25925925925926 85.66666666666667)"/><path d="M92 757v79.76" stroke="#000" stroke-width="2" fill="none"/><path d="M92 756h.68l.32-.02V757h-2v-1.03zM92 851.76l-4.64-14.26h9.28z"/><path d="M92 855l-6-18.5h12zm-3.26-16.5L92 848.53l3.26-10.03z"/><path d="M332 757v79.76" stroke="#000" stroke-width="2" fill="none"/><path d="M332 756h.68l.32-.02V757h-2v-1.03zM332 851.76l-4.64-14.26h9.28z"/><path d="M332 855l-6-18.5h12zm-3.26-16.5l3.26 10.03 3.26-10.03z"/><path d="M552 757v79.76" stroke="#000" stroke-width="2" fill="none"/><path d="M552 756h.68l.32-.02V757h-2v-1.03zM552 851.76l-4.64-14.26h9.28z"/><path d="M552 855l-6-18.5h12zm-3.26-16.5l3.26 10.03 3.26-10.03z"/><path d="M772 757v79.76" stroke="#000" stroke-width="2" fill="none"/><path d="M772 756h.68l.32-.02V757h-2v-1.03zM772 851.76l-4.64-14.26h9.28z"/><path d="M772 855l-6-18.5h12zm-3.26-16.5l3.26 10.03 3.26-10.03z"/><path d="M1012 757v79.76" stroke="#000" stroke-width="2" fill="none"/><path d="M1012 756h.68l.32-.02V757h-2v-1.03zM1012 851.76l-4.64-14.26h9.28z"/><path d="M1012 855l-6-18.5h12zm-3.26-16.5l3.26 10.03 3.26-10.03z"/><path d="M1252 757v79.76" stroke="#000" stroke-width="2" fill="none"/><path d="M1252 756h.68l.32-.02V757h-2v-1.03zM1252 851.76l-4.64-14.26h9.28z"/><path d="M1252 855l-6-18.5h12zm-3.26-16.5l3.26 10.03 3.26-10.03z"/><defs><radialGradient gradientUnits="userSpaceOnUse" id="a" fx="659" fy="92" cx="659" cy="92" r="80"><stop offset="0%" stop-color="#fff"/><stop offset="20%" stop-color="#fff"/><stop offset="100%" stop-color="#b2b2b2"/></radialGradient><path d="M185-189c-5-48-123-54-124 2 14 75 158 14 163 119 3 78-121 87-175 55-17-10-28-26-33-46l33-7c5 56 141 63 141-1 0-78-155-14-162-118-5-82 145-84 179-34 5 7 8 16 11 25" id="A"/><path d="M59-47c-2 24 18 29 38 22v24C64 9 27 4 27-40v-127H5v-23h24l9-43h21v43h35v23H59v120" id="B"/><path d="M141-36C126-15 110 5 73 4 37 3 15-17 15-53c-1-64 63-63 125-63 3-35-9-54-41-54-24 1-41 7-42 31l-33-3c5-37 33-52 76-52 45 0 72 20 72 64v82c-1 20 7 32 28 27v20c-31 9-61-2-59-35zM48-53c0 20 12 33 32 33 41-3 63-29 60-74-43 2-92-5-92 41" id="C"/><path d="M114-163C36-179 61-72 57 0H25l-1-190h30c1 12-1 29 2 39 6-27 23-49 58-41v29" id="D"/><g id="b"><use transform="matrix(0.14814814814814817,0,0,0.14814814814814817,0,0)" xlink:href="#A"/><use transform="matrix(0.14814814814814817,0,0,0.14814814814814817,35.55555555555556,0)" xlink:href="#B"/><use transform="matrix(0.14814814814814817,0,0,0.14814814814814817,50.370370370370374,0)" xlink:href="#C"/><use transform="matrix(0.14814814814814817,0,0,0.14814814814814817,80,0)" xlink:href="#D"/><use transform="matrix(0.14814814814814817,0,0,0.14814814814814817,97.62962962962962,0)" xlink:href="#B"/></g><radialGradient gradientUnits="userSpaceOnUse" id="c" fx="660" fy="404" cx="660" cy="404" r="80"><stop offset="0%" stop-color="#fff"/><stop offset="20%" stop-color="#fff"/><stop offset="100%" stop-color="#7ab648"/></radialGradient><path d="M160-131c35 5 61 23 61 61C221 17 115-2 30 0v-248c76 3 177-17 177 60 0 33-19 50-47 57zm-97-11c50-1 110 9 110-42 0-47-63-36-110-37v79zm0 115c55-2 124 14 124-45 0-56-70-42-124-44v89" id="E"/><use transform="matrix(0.14814814814814817,0,0,0.14814814814814817,0,0)" xlink:href="#E" id="d"/><radialGradient gradientUnits="userSpaceOnUse" id="e" fx="218.67" fy="404" cx="218.67" cy="404" r="80"><stop offset="0%" stop-color="#fff"/><stop offset="20%" stop-color="#fff"/><stop offset="100%" stop-color="#c92d39"/></radialGradient><path d="M205 0l-28-72H64L36 0H1l101-248h38L239 0h-34zm-38-99l-47-123c-12 45-31 82-46 123h93" id="F"/><use transform="matrix(0.14814814814814817,0,0,0.14814814814814817,0,0)" xlink:href="#F" id="f"/><radialGradient gradientUnits="userSpaceOnUse" id="g" fx="1118.67" fy="404" cx="1118.67" cy="404" r="80"><stop offset="0%" stop-color="#fff"/><stop offset="20%" stop-color="#fff"/><stop offset="100%" stop-color="#0c7cba"/></radialGradient><path d="M212-179c-10-28-35-45-73-45-59 0-87 40-87 99 0 60 29 101 89 101 43 0 62-24 78-52l27 14C228-24 195 4 139 4 59 4 22-46 18-125c-6-104 99-153 187-111 19 9 31 26 39 46" id="G"/><use transform="matrix(0.14814814814814817,0,0,0.14814814814814817,0,0)" xlink:href="#G" id="h"/><radialGradient gradientUnits="userSpaceOnUse" id="i" fx="552" fy="676" cx="552" cy="676" r="80"><stop offset="0%" stop-color="#fff"/><stop offset="20%" stop-color="#fff"/><stop offset="100%" stop-color="#01920c"/></radialGradient><g id="j"><use transform="matrix(0.14814814814814817,0,0,0.14814814814814817,0,0)" xlink:href="#E"/><use transform="matrix(0.14814814814814817,0,0,0.14814814814814817,35.55555555555556,0)" xlink:href="#F"/></g><radialGradient gradientUnits="userSpaceOnUse" id="k" fx="772" fy="676" cx="772" cy="676" r="80"><stop offset="0%" stop-color="#fff"/><stop offset="20%" stop-color="#fff"/><stop offset="100%" stop-color="#19967d"/></radialGradient><g id="l"><use transform="matrix(0.14814814814814817,0,0,0.14814814814814817,0,0)" xlink:href="#E"/><use transform="matrix(0.14814814814814817,0,0,0.14814814814814817,35.55555555555556,0)" xlink:href="#G"/></g><radialGradient gradientUnits="userSpaceOnUse" id="m" fx="332" fy="676" cx="332" cy="676" r="80"><stop offset="0%" stop-color="#fff"/><stop offset="20%" stop-color="#fff"/><stop offset="100%" stop-color="#fcc438"/></radialGradient><g id="n"><use transform="matrix(0.14814814814814817,0,0,0.14814814814814817,0,0)" xlink:href="#F"/><use transform="matrix(0.14814814814814817,0,0,0.14814814814814817,35.55555555555556,0)" xlink:href="#G"/></g><radialGradient gradientUnits="userSpaceOnUse" id="o" fx="92" fy="676" cx="92" cy="676" r="80"><stop offset="0%" stop-color="#fff"/><stop offset="20%" stop-color="#fff"/><stop offset="100%" stop-color="#ef8d22"/></radialGradient><g id="p"><use transform="matrix(0.14814814814814817,0,0,0.14814814814814817,0,0)" xlink:href="#F"/><use transform="matrix(0.14814814814814817,0,0,0.14814814814814817,35.55555555555556,0)" xlink:href="#E"/></g><radialGradient gradientUnits="userSpaceOnUse" id="q" fx="1012" fy="676" cx="1012" cy="676" r="80"><stop offset="0%" stop-color="#fff"/><stop offset="20%" stop-color="#fff"/><stop offset="100%" stop-color="#834187"/></radialGradient><g id="r"><use transform="matrix(0.14814814814814817,0,0,0.14814814814814817,0,0)" xlink:href="#G"/><use transform="matrix(0.14814814814814817,0,0,0.14814814814814817,38.370370370370374,0)" xlink:href="#F"/></g><radialGradient gradientUnits="userSpaceOnUse" id="s" fx="1252" fy="676" cx="1252" cy="676" r="80"><stop offset="0%" stop-color="#fff"/><stop offset="20%" stop-color="#fff"/><stop offset="100%" stop-color="#de5f85"/></radialGradient><g id="t"><use transform="matrix(0.14814814814814817,0,0,0.14814814814814817,0,0)" xlink:href="#G"/><use transform="matrix(0.14814814814814817,0,0,0.14814814814814817,38.370370370370374,0)" xlink:href="#E"/></g><g id="u"><use transform="matrix(0.14814814814814817,0,0,0.14814814814814817,0,0)" xlink:href="#E"/><use transform="matrix(0.14814814814814817,0,0,0.14814814814814817,35.55555555555556,0)" xlink:href="#F"/><use transform="matrix(0.14814814814814817,0,0,0.14814814814814817,71.11111111111111,0)" xlink:href="#G"/></g><g id="v"><use transform="matrix(0.14814814814814817,0,0,0.14814814814814817,0,0)" xlink:href="#E"/><use transform="matrix(0.14814814814814817,0,0,0.14814814814814817,35.55555555555556,0)" xlink:href="#G"/><use transform="matrix(0.14814814814814817,0,0,0.14814814814814817,73.92592592592592,0)" xlink:href="#F"/></g><g id="w"><use transform="matrix(0.14814814814814817,0,0,0.14814814814814817,0,0)" xlink:href="#F"/><use transform="matrix(0.14814814814814817,0,0,0.14814814814814817,35.55555555555556,0)" xlink:href="#G"/><use transform="matrix(0.14814814814814817,0,0,0.14814814814814817,73.92592592592592,0)" xlink:href="#E"/></g><g id="x"><use transform="matrix(0.14814814814814817,0,0,0.14814814814814817,0,0)" xlink:href="#F"/><use transform="matrix(0.14814814814814817,0,0,0.14814814814814817,35.55555555555556,0)" xlink:href="#E"/><use transform="matrix(0.14814814814814817,0,0,0.14814814814814817,71.11111111111111,0)" xlink:href="#G"/></g><g id="y"><use transform="matrix(0.14814814814814817,0,0,0.14814814814814817,0,0)" xlink:href="#G"/><use transform="matrix(0.14814814814814817,0,0,0.14814814814814817,38.370370370370374,0)" xlink:href="#F"/><use transform="matrix(0.14814814814814817,0,0,0.14814814814814817,73.92592592592592,0)" xlink:href="#E"/></g><g id="z"><use transform="matrix(0.14814814814814817,0,0,0.14814814814814817,0,0)" xlink:href="#G"/><use transform="matrix(0.14814814814814817,0,0,0.14814814814814817,38.370370370370374,0)" xlink:href="#E"/><use transform="matrix(0.14814814814814817,0,0,0.14814814814814817,73.92592592592592,0)" xlink:href="#F"/></g></defs></g></svg>